<svg id="Icons" xmlns="http://www.w3.org/2000/svg" viewBox="0 0 36 33.08"><title>linkedin</title><path d="M390,1014.91h-7V992.43h7v22.47Zm-3.69-25.29h-0.05a3.9,3.9,0,0,1-4.18-3.9c0-2.22,1.69-3.9,4.29-3.9a3.92,3.92,0,0,1,4.23,3.9C390.58,987.9,388.93,989.62,386.3,989.62Zm31.76,25.29h-8v-11.63c0-3-1.24-5.12-4-5.12a4,4,0,0,0-3.8,2.75,5.09,5.09,0,0,0-.17,1.83v12.16h-7.88s0.1-20.6,0-22.47h7.88V996c0.47-1.54,3-3.74,7-3.74,5,0,8.91,3.23,8.91,10.19v12.5Z" transform="translate(-382.06 -981.82)" style="fill:#fff"/></svg>