<svg id="Layer_1" data-name="Layer 1" xmlns="http://www.w3.org/2000/svg" viewBox="0 0 500 500"><title>codepen</title><path d="M497.91,171c0-.31-.12-.61-.18-.93-.11-.6-.22-1.2-.37-1.79-.09-.35-.22-.69-.33-1-.17-.52-.34-1-.55-1.56-.15-.35-.31-.71-.48-1s-.46-1-.73-1.41-.4-.67-.61-1-.58-.88-.9-1.3-.48-.63-.73-.93-.69-.78-1.07-1.15-.56-.57-.85-.84-.8-.69-1.21-1-.63-.5-1-.73c-.13-.08-.23-.18-.35-.26L261.4,4.59a21.35,21.35,0,0,0-23.7,0L10.51,156c-.12.08-.23.18-.35.26-.33.24-.65.48-1,.73s-.82.67-1.21,1-.57.55-.86.84-.72.76-1.06,1.15-.5.62-.74.93-.62.85-.9,1.3-.42.65-.61,1-.5.93-.73,1.41-.33.69-.48,1c-.21.51-.38,1-.55,1.56-.11.34-.24.68-.33,1-.16.59-.26,1.19-.37,1.79-.05.31-.13.61-.17.93a20.62,20.62,0,0,0-.2,2.79V325.28a21,21,0,0,0,.2,2.8c0,.3.12.61.17.91.11.6.22,1.2.37,1.79.1.35.22.69.33,1,.17.52.34,1,.55,1.57.14.35.31.69.48,1s.46,1,.73,1.42.4.65.61,1,.58.88.9,1.3.48.63.74.93.69.78,1.06,1.15.56.57.86.84.79.69,1.21,1,.63.5,1,.73c.12.08.24.18.35.26L237.7,494.51a21.32,21.32,0,0,0,23.7,0L488.59,343c.12-.08.23-.18.35-.26.33-.23.65-.48,1-.73s.82-.67,1.21-1,.57-.55.85-.84.73-.76,1.07-1.15.5-.6.73-.93.62-.85.9-1.3.41-.65.61-1,.5-.94.73-1.42.33-.68.48-1c.21-.52.38-1,.55-1.57.11-.34.24-.68.33-1,.16-.59.27-1.19.37-1.79.05-.3.13-.61.18-.91a22.29,22.29,0,0,0,.19-2.8V173.82A21.89,21.89,0,0,0,497.91,171Zm-227-108.76L438.27,173.84l-74.76,50-92.61-61.95Zm-42.72,0v99.63l-92.6,61.95-74.76-50ZM43.72,213.8l53.44,35.75L43.72,285.3Zm184.47,223L60.82,325.25l74.76-50,92.6,61.94Zm21.36-136.74L174,249.55,249.55,199l75.55,50.53Zm21.36,136.74V337.19l92.61-61.94,74.76,50ZM455.38,285.3l-53.44-35.75,53.44-35.75Z" style="fill:#fff"/></svg>