<svg id="Icons" xmlns="http://www.w3.org/2000/svg" viewBox="0 0 36 29.26"><title>twitter</title><path d="M418.06,390.78a14.8,14.8,0,0,1-4.24,1.16,7.38,7.38,0,0,0,3.25-4.08,14.73,14.73,0,0,1-4.69,1.79,7.39,7.39,0,0,0-12.77,5.05,7.28,7.28,0,0,0,.19,1.68,21,21,0,0,1-15.22-7.72,7.4,7.4,0,0,0,2.29,9.86,7.4,7.4,0,0,1-3.35-.92v0.09a7.39,7.39,0,0,0,5.93,7.24,7.2,7.2,0,0,1-1.95.26,7.31,7.31,0,0,1-1.39-.13,7.38,7.38,0,0,0,6.9,5.13,14.94,14.94,0,0,1-10.93,3.06,20.92,20.92,0,0,0,11.32,3.32c13.59,0,21-11.25,21-21,0-.32,0-0.64,0-1a15,15,0,0,0,3.69-3.82" transform="translate(-382.06 -387.32)" style="fill:#fff"/></svg>