<svg id="Icons" xmlns="http://www.w3.org/2000/svg" viewBox="0 0 35.93 36"><title>pinterest</title><path d="M200,981.79a18,18,0,0,0-7.21,34.49,15.84,15.84,0,0,1,.31-4.13l2.31-9.81a7,7,0,0,1-.57-2.85c0-2.67,1.54-4.66,3.46-4.66a2.41,2.41,0,0,1,2.42,2.7c0,1.65-1,4.11-1.59,6.39a2.78,2.78,0,0,0,2.83,3.47c3.4,0,5.7-4.38,5.7-9.57,0-3.95-2.65-6.9-7.47-6.9a8.51,8.51,0,0,0-8.84,8.62,5.21,5.21,0,0,0,1.18,3.53,0.88,0.88,0,0,1,.26,1c-0.09.33-.28,1.13-0.37,1.44a0.62,0.62,0,0,1-.9.45c-2.51-1-3.68-3.78-3.68-6.88,0-5.11,4.3-11.25,12.84-11.25,6.86,0,11.37,5,11.37,10.31,0,7.06-3.92,12.34-9.69,12.34a5.15,5.15,0,0,1-4.39-2.24s-1,4.15-1.26,5a15.06,15.06,0,0,1-1.81,3.85A18,18,0,1,0,200,981.79" transform="translate(-182.05 -981.79)" style="fill:#fff"/></svg>